<svg width="22" height="25" viewBox="0 0 22 25" fill="none" xmlns="http://www.w3.org/2000/svg">
    <mask id="path-1-inside-1_2260_4245" fill="white">
        <path d="M0.394531 9.17792C0.394531 8.65493 0.8185 8.23096 1.34149 8.23096H20.5818C21.1048 8.23096 21.5288 8.65493 21.5288 9.17792V20.8328C21.5288 22.9248 19.8329 24.6207 17.7409 24.6207H4.18238C2.09041 24.6207 0.394531 22.9248 0.394531 20.8328V9.17792Z"/>
    </mask>
    <path d="M0.394531 9.17792C0.394531 8.65493 0.8185 8.23096 1.34149 8.23096H20.5818C21.1048 8.23096 21.5288 8.65493 21.5288 9.17792V20.8328C21.5288 22.9248 19.8329 24.6207 17.7409 24.6207H4.18238C2.09041 24.6207 0.394531 22.9248 0.394531 20.8328V9.17792Z" stroke="#FBFAF6" stroke-width="3.78784" mask="url(#path-1-inside-1_2260_4245)"/>
    <path d="M16.0156 10.9629V6.00086C16.0156 3.2097 13.753 0.947021 10.9618 0.947021V0.947021C8.17064 0.947021 5.90796 3.2097 5.90796 6.00086V10.9629" stroke="#FBFAF6" stroke-width="1.89392" stroke-linecap="round"/>
</svg>
