<svg width="309" height="267" viewBox="0 0 309 267" fill="none" xmlns="http://www.w3.org/2000/svg">
    <path d="M253.406 125.711C235.797 117.557 206.325 116.448 168.388 122.485C142.425 126.617 116.045 133.797 96.8296 141.944L94.7226 142.829L96.8734 142.736C99.3261 142.626 102.854 142.646 105.4 142.788C108.088 142.934 115.352 143.872 115.934 144.146C116.711 144.53 117.436 146.269 117.735 148.528C117.878 149.642 118.169 150.888 118.371 151.308L118.747 152.089L117.275 151.781C112.456 150.775 105.384 150.06 100.121 150.062C93.5686 150.076 84.7277 151.007 77.202 152.507L73.4012 153.265L71.464 154.328C70.3961 154.916 68.305 156.127 66.8464 157.014C64.9525 158.167 64.0987 158.615 63.9952 158.517C63.9061 158.449 63.5991 157.987 63.3077 157.499C62.8995 156.826 62.5806 156.573 62.0994 156.509C60.9276 156.298 60.179 155.678 59.8548 154.596C59.2835 152.709 59.2087 152.32 59.5684 152.424C59.8078 152.512 59.8992 152.468 59.9256 152.289C59.9207 152.162 60.1515 151.939 60.4257 151.807C61.324 151.393 69.9549 145.351 72.469 143.382C76.6003 140.153 83.4522 134.45 86.1273 131.997C92.6146 126.063 98.2104 119.856 101.249 115.176L102.3 113.56L103.334 114.948C103.869 115.707 104.754 117.018 105.249 117.87C106.123 119.334 106.166 119.424 105.899 120.33C105.24 122.643 102.612 126.774 99.8957 129.783L98.167 131.688L100.173 130.943C113.826 125.975 130.918 121.661 149.099 118.615C155.091 117.614 168.844 115.777 175.652 115.067C210.547 111.42 236.209 113.736 252.458 121.99C254.719 123.119 255.072 123.559 255.405 125.654L255.579 126.716L253.406 125.711Z" fill="#FBFAF6" fill-opacity="0.5"/>
</svg>
