<svg width="219" height="39" viewBox="0 0 219 39" fill="none" xmlns="http://www.w3.org/2000/svg">
    <path d="M80.8317 33.6562H1.18958C0.965171 33.6562 0.785645 33.8085 0.785645 33.9988V35.5403C0.785645 35.7306 0.965171 35.8829 1.18958 35.8829H80.8317C81.0561 35.8829 81.2356 35.7306 81.2356 35.5403V33.9988C81.2581 33.8085 81.0561 33.6562 80.8317 33.6562Z" fill="#FBFAF6"/>
    <path d="M93.1272 10.7435C93.214 10.7435 93.2844 10.5305 93.2844 10.2678C93.2844 10.005 93.214 9.79199 93.1272 9.79199C93.0404 9.79199 92.97 10.005 92.97 10.2678C92.97 10.5305 93.0404 10.7435 93.1272 10.7435Z" fill="#FBFAF6"/>
    <path d="M103.182 11.2194C103.331 11.2194 103.451 10.9297 103.451 10.5723C103.451 10.215 103.331 9.92529 103.182 9.92529C103.033 9.92529 102.912 10.215 102.912 10.5723C102.912 10.9297 103.033 11.2194 103.182 11.2194Z" fill="#FBFAF6"/>
    <path d="M107.111 3.20725C107.537 3.62593 107.896 4.1017 108.211 4.61553C109.22 6.25218 109.781 8.07913 109.983 10.2677C111.711 12.1137 113.709 13.5029 115.392 13.8835C114.584 10.9718 114.831 10.5151 117.95 8.97358C118.287 8.8023 118.623 8.65006 118.96 8.51684C120.172 8.0601 121.428 7.62239 122.618 7.12759C124.548 6.3283 125.714 4.46328 125.49 2.65536C125.423 2.14153 125.131 1.85607 124.547 1.79897C123.762 1.74188 122.954 1.66576 122.169 1.72285C119.319 1.89413 116.581 1.53255 114.023 0.428761C112.946 -0.0279776 111.779 -0.0660438 110.589 0.0671716C108.3 0.295541 106.46 1.01871 105.181 2.29377C105.877 2.35087 106.572 2.67439 107.111 3.20725ZM112.968 2.90276C113.035 2.38893 113.439 2.3128 114.045 2.35086C114.068 2.69342 114.045 2.97888 114.113 3.24531C114.157 3.41659 114.382 3.56884 114.539 3.72108C114.718 3.54981 114.92 3.41659 115.033 3.22628C115.122 3.07404 115.1 2.8647 115.122 2.65536C115.728 2.8647 115.975 3.37853 115.773 3.91139C115.616 4.29201 114.853 4.53941 114.202 4.40619C113.35 4.23491 112.856 3.62593 112.968 2.90276Z" fill="#FBFAF6"/>
    <path d="M102.262 15.3107C102.621 15.0823 103.092 14.93 103.518 14.8159C104.753 14.4923 105.964 14.1498 106.952 13.4076C107.76 12.7986 108.186 12.0374 108.141 11.1049C108.029 9.0876 107.625 7.14647 106.526 5.33854C106.279 4.9389 105.987 4.55828 105.65 4.23476C105.179 3.75899 104.663 3.75899 104.281 4.29185C103.833 4.9389 103.496 5.64304 103.115 6.32815C103.025 6.48039 102.98 6.61361 102.89 6.78488C100.848 6.25202 98.761 6.19493 96.6516 6.25202C96.5394 6.25202 96.3599 6.09977 96.2701 5.98559C95.9111 5.47176 95.5969 4.90084 95.193 4.42507C94.7666 3.91124 94.3402 3.9493 93.9811 4.50119C93.667 4.95793 93.4201 5.45273 93.2406 5.96656C92.8816 7.01325 92.5898 8.05994 92.2757 9.16373C92.4776 9.16373 92.5898 9.16373 92.702 9.16373C93.5099 9.16373 94.0709 9.48725 94.4075 10.0772C94.4973 10.2485 94.5871 10.4198 94.6319 10.591C94.9012 11.4474 94.6544 11.7329 93.5997 11.7519C93.2182 11.7519 92.8142 11.6187 92.4327 11.5426C92.7245 12.7986 93.5548 13.7501 94.9461 14.3591C95.5296 14.6065 96.4721 14.8539 96.9433 15.2536C97.5717 15.7484 97.3697 16.5857 97.2575 17.385C97.1453 18.1843 92.4776 23.0562 90.3009 25.0544C90.1438 25.1686 89.9867 25.3209 89.8072 25.4731C87.9446 27.1859 85.9474 28.0232 83.7706 28.0232C82.1549 28.0232 80.7636 27.4713 79.5069 26.3675C78.2502 25.3018 77.4423 23.8555 77.0833 22.0285C78.497 22.5043 79.8884 22.7136 81.347 22.7136C83.3667 22.7136 85.1171 22.4091 86.6206 21.8573C88.1241 21.3054 89.291 20.5822 90.0989 19.5926C90.8619 18.603 91.2658 17.5563 91.2658 16.3574C91.2658 15.2155 90.9068 14.0927 90.1662 13.1221C89.4032 12.1325 88.4158 11.3713 87.1592 10.8194C85.8576 10.2675 84.399 9.96302 82.8281 9.96302C80.8758 9.96302 79.1029 10.3817 77.5097 11.2761C75.849 12.1706 74.5924 13.4076 73.6499 14.9491C72.6849 16.4906 72.2361 18.1463 72.2361 19.9732C72.2361 21.8002 72.7298 23.4749 73.6947 24.9973C74.6597 26.5769 75.9164 27.8139 77.5097 28.7083C79.1254 29.6028 80.8758 30.0785 82.7383 30.0785C84.4663 30.0785 86.0371 29.717 87.5182 29.0128C87.3836 29.2983 87.2714 29.6028 87.1592 29.9263C86.5308 31.5439 86.5533 33.1235 87.608 34.6269C89.2013 36.9106 92.6796 37.2722 94.8115 35.3881C96.5843 33.8086 96.8984 30.7827 95.4847 28.9557C94.6319 27.8519 93.7119 27.7949 92.6347 28.7845C92.5898 28.8225 92.5449 28.8606 92.5001 28.8986C92.0737 29.2412 91.6024 29.3173 91.0863 29.0889C90.5477 28.8415 90.4804 28.4038 90.6375 27.9661C91.0863 26.634 93.1733 25.6634 94.7666 26.044C96.7189 26.5008 97.8634 27.6807 98.1776 29.2602C98.5142 30.9159 98.4917 32.6287 98.6264 34.3034C98.6488 34.684 98.6264 35.0646 98.6937 35.4452C98.8059 36.1113 99.4567 36.5871 100.242 36.6251C100.265 36.6251 100.287 36.6251 100.332 36.6251C100.354 36.6251 100.377 36.6251 100.422 36.6251C100.713 36.6251 100.983 36.568 101.207 36.4348C101.701 36.2065 102.015 35.7878 102.037 35.2549C102.082 33.6373 102.06 32.0007 102.06 30.383C102.037 30.383 102.037 30.383 102.015 30.383C102.015 28.8986 102.105 27.3952 102.015 25.9108V25.5683C102.015 22.9991 101.633 17.5563 101.589 16.776C101.544 15.9387 101.589 15.7103 102.262 15.3107ZM77.9585 16.2432C78.6093 14.873 79.462 13.7692 80.5616 12.9699C81.6612 12.1516 82.8281 11.7709 84.0399 11.7709C85.0049 11.7709 85.7454 12.0754 86.3513 12.6273C86.9123 13.2173 87.2041 13.9405 87.2041 14.8349C87.2041 15.7293 86.9123 16.6238 86.2391 17.5182C85.5883 18.4127 84.6907 19.1739 83.434 19.7829C82.1773 20.4299 80.6738 20.7725 78.901 20.8106C78.6541 20.8486 78.2951 20.8486 77.8463 20.8486H76.9935V20.6773C76.9486 19.0978 77.3077 17.6134 77.9585 16.2432ZM97.2575 12.8367C97.1004 12.8367 96.8984 12.6464 96.7862 12.5131C96.6516 12.3419 96.7414 12.1896 97.0106 12.2277C97.3248 12.2657 97.639 12.3609 97.9532 12.437C97.9756 12.4941 97.9756 12.5512 97.998 12.5893C97.7512 12.6654 97.5043 12.8176 97.2575 12.8367ZM101.566 12.0754C101.274 11.9042 101.05 11.6758 100.758 11.5045C100.556 11.3713 100.579 11.2381 100.691 11.0478C101.342 10.0011 102.419 9.56338 103.608 9.46822C104.618 9.46822 105.359 9.84884 105.763 10.5149C105.83 10.6101 105.807 10.8194 105.74 10.8955C105.336 11.2761 104.932 11.6948 104.461 11.9993C103.563 12.6083 102.509 12.6083 101.566 12.0754Z" fill="#FBFAF6"/>
    <path d="M218.617 33.6562H153.673C153.449 33.6562 153.269 33.8085 153.269 33.9988V35.5403C153.269 35.7306 153.449 35.8829 153.673 35.8829H218.594C218.819 35.8829 218.998 35.7306 218.998 35.5403V33.9988C219.021 33.8085 218.841 33.6562 218.617 33.6562Z" fill="#FBFAF6"/>
    <path d="M7.42788 28.4415C9.69439 29.6785 12.1629 30.2684 14.8109 30.2684C17.2345 30.2684 19.4337 29.7546 21.4982 28.784C23.5179 27.7944 25.2683 26.4813 26.7269 24.9018C26.9738 24.5973 27.1308 24.3499 27.1308 24.0454V23.9122C27.1308 23.7409 27.0411 23.6077 26.884 23.4935C26.7269 23.3603 26.5923 23.3222 26.4352 23.3222C26.3454 23.3222 26.2781 23.3222 26.2332 23.3603C25.9864 23.3983 25.7395 23.5315 25.4253 23.7409C25.1336 23.9502 24.9316 24.1215 24.8643 24.1596C23.5628 25.3014 22.1041 26.291 20.5333 27.1093C18.9849 27.9277 17.1672 28.3463 15.1475 28.3463C13.1278 28.3463 11.3774 27.7944 9.87392 26.7287C8.37039 25.663 7.20347 24.2547 6.39561 22.5039C5.54286 20.7531 5.13893 18.8309 5.13893 16.7566C5.13893 14.6632 5.58774 12.703 6.44049 10.9522C7.29324 9.20137 8.50504 7.7931 10.0086 6.78446C11.4672 5.7568 13.0829 5.24297 14.7884 5.24297C16.3368 5.24297 17.6609 5.62358 18.7604 6.44191C19.86 7.26023 20.4211 8.64948 20.4211 10.7048C20.4211 11.3519 20.7128 11.9418 21.386 12.4176C21.9919 12.9314 22.7325 13.1788 23.6076 13.1788C24.6624 13.1788 25.4702 12.8743 26.0312 12.3224C26.5249 11.7705 26.7942 11.1235 26.7942 10.4003C26.7942 9.37265 26.2332 8.30692 25.1785 7.20314C24.0789 6.13742 22.6203 5.20491 20.7577 4.48174C18.8951 3.75857 16.9428 3.41602 14.8333 3.41602C12.1629 3.41602 9.71683 4.00597 7.45032 5.20491C5.18381 6.44191 3.38855 8.05953 2.01967 10.1149C0.673222 12.1511 0 14.3777 0 16.7566C0 19.1925 0.650781 21.4382 2.01967 23.5315C3.36611 25.6249 5.16137 27.2425 7.42788 28.4415Z" fill="#FBFAF6"/>
    <path d="M35.881 18.0881C33.8614 18.7351 32.2681 19.6296 31.1011 20.7714C29.8893 21.9133 29.2834 23.2074 29.2834 24.6156C29.2834 26.2332 29.9791 27.5083 31.3929 28.4979C32.7393 29.4875 34.557 29.9823 36.7113 29.9823C39.1798 29.9823 41.1321 29.1259 42.5908 27.4322C42.6806 28.1934 42.9498 28.8024 43.3987 29.2211C43.8475 29.6398 44.4983 29.8681 45.4183 29.8681C46.0691 29.8681 46.7648 29.7349 47.438 29.4875C48.0888 29.2782 48.5376 28.9737 48.8966 28.6692C49.1884 28.3647 49.1884 28.1934 48.9415 28.1173C47.7746 27.6415 47.1911 26.671 47.1911 25.0914V15.9757C47.1911 14.6625 46.7872 13.5397 45.9793 12.6453C45.1715 11.7508 44.1617 11.0657 42.905 10.647C41.6483 10.2284 40.3018 10 38.8881 10C37.3846 10 35.9708 10.2474 34.6243 10.7232C33.2779 11.1989 32.1559 11.827 31.348 12.6072C30.4952 13.4255 30.0913 14.2248 30.0913 15.0812C30.0913 15.7663 30.3382 16.2802 30.787 16.6608C31.2358 17.0414 31.7968 17.2507 32.5374 17.2507C33.2779 17.2507 33.8838 17.0414 34.3551 16.6608C34.8039 16.2802 35.0058 15.7663 35.0058 15.0812C35.0058 14.0916 35.3649 13.3304 36.0605 12.7404C36.7562 12.1505 37.7212 11.846 38.8656 11.846C39.9204 11.846 40.818 12.2266 41.4688 12.9498C42.1195 13.711 42.4786 14.7387 42.4786 15.9757V17.0414C40.0999 17.0604 37.8782 17.441 35.881 18.0881ZM42.501 22.1797C42.501 23.6641 42.0971 24.9582 41.3341 26.062C40.5711 27.2038 39.3145 27.7747 37.609 27.7747C36.442 27.7747 35.5444 27.4322 34.8487 26.7851C34.1531 26.1381 33.794 25.4149 33.794 24.6156C33.794 22.7887 34.6019 21.3804 36.2625 20.3527C37.9231 19.3631 39.9877 18.8112 42.501 18.7351V22.1797Z" fill="#FBFAF6"/>
    <path d="M49.9773 29.5455H58.8638C59.0209 29.5455 59.1107 29.4694 59.1107 29.3362V28.575C59.1107 28.4418 59.0209 28.3656 58.8638 28.3656C58.0111 28.3656 57.45 28.1563 57.2032 27.6805C56.9115 27.2048 56.7544 26.5767 56.7544 25.7584V19.326C56.7544 17.4039 57.1583 15.8244 58.0111 14.6825C58.8638 13.5407 59.9634 12.9317 61.3323 12.9317C63.3968 12.9317 64.4515 14.3019 64.4515 17.0614V25.7584C64.4515 26.5767 64.2945 27.2048 64.0476 27.6805C63.7559 28.1563 63.1949 28.3656 62.3421 28.3656C62.185 28.3656 62.0953 28.4418 62.0953 28.575V29.3362C62.0953 29.4694 62.185 29.5455 62.3421 29.5455H71.2286C71.3857 29.5455 71.4755 29.4694 71.4755 29.3362V28.575C71.4755 28.4418 71.3857 28.3656 71.2286 28.3656C70.3759 28.3656 69.8149 28.1563 69.568 27.6805C69.2763 27.2048 69.1192 26.5767 69.1192 25.7584V17.0614C69.1192 14.8918 68.6255 13.141 67.6157 11.866C66.6059 10.5909 65.0574 9.94385 62.948 9.94385C61.5343 9.94385 60.3449 10.2864 59.3351 11.0096C58.2803 11.7327 57.4276 12.6652 56.7768 13.8261C56.7319 12.5891 56.53 11.6566 56.1709 11.0096C55.767 10.3625 55.004 10.0771 53.8595 10.0771C53.2087 10.0771 52.558 10.2103 51.9072 10.4196C51.2564 10.667 50.7403 10.9334 50.4485 11.2379C50.0895 11.5424 50.0895 11.7137 50.3588 11.8279C51.5257 12.3037 52.1091 13.2742 52.1091 14.8538V25.7584C52.1091 26.5767 51.9521 27.2048 51.7052 27.6805C51.4135 28.1563 50.8525 28.3656 49.9997 28.3656C49.8426 28.3656 49.7529 28.4418 49.7529 28.575V29.3362C49.7304 29.4694 49.8426 29.5455 49.9773 29.5455Z" fill="#FBFAF6"/>
    <path d="M147.077 6.48047C146.022 6.48047 144.967 6.82302 143.913 7.47007C142.858 8.15518 142.005 9.04962 141.242 10.1915C140.075 9.81085 138.931 9.60151 137.674 9.60151C135.924 9.60151 134.263 9.98213 132.805 10.7053C131.346 11.4285 130.134 12.4561 129.281 13.6931C128.429 14.9682 127.98 16.3384 127.98 17.8228C127.98 19.0598 128.272 20.2017 128.877 21.2674C129.483 22.3331 130.336 23.2656 131.391 24.0459C129.842 24.5978 129.035 25.4541 129.035 26.5579C129.035 27.3192 129.483 28.0043 130.336 28.5942C129.528 28.9368 128.877 29.4125 128.384 30.0406C128.182 30.307 128.025 30.5925 127.89 30.916C125.826 31.8104 123.671 33.0665 124.367 32.2672C127.98 28.0994 126.252 21.9905 122.706 19.802C119.273 17.6706 115.234 18.2605 113.326 16.7381C111.419 15.2156 109.937 11.9994 109.937 11.9994C109.937 11.9994 109.152 13.8454 108.21 14.5495C106.975 15.482 105.539 15.9007 104.08 16.3003C103.789 16.3765 103.587 16.4526 103.43 16.5097C103.43 16.5478 103.452 16.9855 103.452 16.9855C103.542 18.5079 103.856 23.1324 103.856 25.4922V25.8157C103.923 26.8053 103.901 27.7759 103.879 28.7274V30.307C103.879 30.7828 103.879 31.2585 103.879 31.7343C103.879 32.8762 103.878 34.0561 103.856 35.2169C103.856 35.5024 103.789 35.7879 103.699 36.0543C104.664 37.3864 107.088 37.0629 107.581 34.9886C107.963 33.39 107.245 28.5181 107.581 26.8624C111.329 27.8901 114.313 28.8416 114.224 31.6582C114.179 33.0094 114.156 32.9713 112.608 33.1236C111.688 33.2187 110.745 33.428 109.87 33.7135C108.075 34.2844 108.142 35.7308 108.613 36.2065C109.264 36.8155 111.935 36.8536 115.211 36.8536C119.43 36.8536 117.298 36.6633 120.44 36.5681C123.716 36.3397 126.319 35.3501 128.137 34.2273C128.339 34.5699 128.631 34.8934 128.945 35.2169C129.842 36.1114 131.054 36.7965 132.603 37.3103C134.151 37.8242 135.812 38.0716 137.629 38.0716C139.178 38.0716 140.838 37.8622 142.499 37.4245C144.16 37.0058 145.618 36.3207 146.763 35.3311C147.93 34.3986 148.468 33.1997 148.468 31.7153C148.468 29.8312 147.369 28.5562 145.192 27.8711C143.038 27.224 140.165 26.8815 136.709 26.8815C135.296 26.8815 134.039 26.8053 132.984 26.577C131.885 26.4057 131.324 26.1012 131.324 25.6445C131.324 25.4351 131.481 25.2638 131.772 25.1306C132.019 24.9974 132.333 24.9594 132.625 24.9594C132.67 24.9213 132.715 24.9213 132.827 24.9213C134.286 25.6445 135.901 25.987 137.607 25.987C139.357 25.987 140.973 25.6064 142.432 24.8832C143.89 24.1601 145.035 23.1324 145.91 21.8954C146.763 20.6584 147.212 19.2882 147.212 17.8038C147.212 16.2242 146.718 14.7398 145.753 13.4077C144.788 12.0945 143.486 11.1049 141.893 10.4198C142.297 9.90601 142.791 9.43024 143.352 9.01156C143.913 8.63094 144.451 8.42161 144.967 8.42161C144.967 8.9735 145.214 9.44927 145.663 9.82989C146.112 10.2105 146.628 10.4198 147.279 10.4198C147.93 10.4198 148.491 10.2105 148.939 9.82989C149.388 9.44927 149.59 8.9735 149.59 8.42161C149.59 7.86972 149.388 7.39394 148.939 7.01333C148.536 6.65174 147.885 6.48047 147.077 6.48047ZM131.705 30.7447C132.064 30.2689 132.468 29.9264 133.007 29.717C134.173 30.0596 135.565 30.307 137.27 30.4402C139.941 30.6876 141.848 30.9921 142.993 31.2966C144.092 31.6392 144.653 32.2291 144.653 33.0855C144.653 33.9799 144.003 34.665 142.746 35.2169C141.489 35.7688 139.784 36.0353 137.674 36.0353C135.722 36.0353 134.151 35.6927 133.007 34.9695C131.795 34.2844 131.189 33.39 131.189 32.2481C131.211 31.7153 131.346 31.2014 131.705 30.7447ZM142.611 17.8228C142.611 18.9647 142.409 19.9923 141.96 20.9819C141.512 21.9715 140.951 22.7708 140.21 23.3227C139.447 23.8746 138.594 24.1791 137.697 24.1791C136.799 24.1791 135.946 23.8746 135.183 23.3227C134.42 22.7708 133.837 21.9525 133.366 20.9819C132.917 19.9923 132.67 18.9837 132.67 17.8228C132.67 16.681 132.917 15.5581 133.366 14.5876C133.814 13.598 134.42 12.8367 135.183 12.2849C135.946 11.733 136.732 11.4285 137.697 11.4285C138.594 11.4285 139.447 11.733 140.21 12.2849C140.973 12.8367 141.512 13.598 141.96 14.5876C142.409 15.5772 142.611 16.681 142.611 17.8228Z" fill="#FBFAF6"/>
    <path d="M163.461 27.4136C163.551 28.1749 163.82 28.7838 164.269 29.2025C164.718 29.6212 165.369 29.8496 166.289 29.8496C166.939 29.8496 167.635 29.7164 168.308 29.469C168.959 29.2596 169.408 28.9551 169.767 28.6506C170.059 28.3461 170.059 28.1749 169.812 28.0987C168.645 27.623 168.061 26.6524 168.061 25.0729V15.9571C168.061 14.644 167.658 13.5212 166.85 12.6267C166.042 11.7323 165.032 11.0472 163.775 10.6285C162.519 10.2098 161.172 9.98145 159.758 9.98145C158.255 9.98145 156.841 10.2288 155.495 10.7046C154.148 11.1804 153.026 11.8084 152.218 12.5887C151.366 13.407 150.962 14.2063 150.962 15.0627C150.962 15.7478 151.208 16.2616 151.657 16.6422C152.106 17.0228 152.667 17.2322 153.408 17.2322C154.171 17.2322 154.754 17.0228 155.225 16.6422C155.674 16.2616 155.876 15.7478 155.876 15.0627C155.876 14.0731 156.235 13.3118 156.931 12.7219C157.627 12.1319 158.591 11.8274 159.736 11.8274C160.791 11.8274 161.688 12.208 162.339 12.9312C162.99 13.6924 163.349 14.7201 163.349 15.9571V17.0228C160.948 17.0609 158.726 17.4415 156.706 18.0886C154.687 18.7356 153.093 19.63 151.927 20.7719C150.715 21.9137 150.109 23.2078 150.109 24.6161C150.109 26.2337 150.805 27.5088 152.218 28.4984C153.565 29.488 155.382 29.9828 157.537 29.9828C160.05 29.9638 162.002 29.1264 163.461 27.4136ZM154.664 24.5971C154.664 22.7701 155.472 21.3618 157.133 20.3342C158.793 19.3446 160.858 18.7927 163.371 18.7166V22.1611C163.371 23.6455 162.967 24.9396 162.204 26.0434C161.441 27.1853 160.185 27.7562 158.479 27.7562C157.312 27.7562 156.415 27.4136 155.719 26.7666C155.023 26.1386 154.664 25.4154 154.664 24.5971Z" fill="#FBFAF6"/>
    <path d="M170.233 11.5627H172.702V25.7977C172.702 27.0347 173.263 28.0624 174.407 28.8617C175.574 29.68 176.92 30.0606 178.536 30.0606C180.354 30.0606 181.813 29.8132 182.912 29.2423C183.967 28.6904 184.528 27.9672 184.528 27.0728C184.528 26.3877 184.281 25.8358 183.832 25.4552C183.383 25.0746 182.733 24.8652 181.97 24.8652C181.207 24.8652 180.556 25.0746 180.107 25.4552C179.658 25.8358 179.411 26.3877 179.411 27.0728C179.411 27.4534 179.367 27.7579 179.209 27.9672C179.052 28.2146 178.806 28.3478 178.559 28.3478C178.11 28.3478 177.796 28.1385 177.661 27.7008C177.504 27.3202 177.414 26.6731 177.414 25.7787V11.5437H180.421C180.578 11.5437 180.668 11.4675 180.668 11.3343V10.5731C180.668 10.4399 180.578 10.3638 180.421 10.3638H177.347V6.74791C177.347 6.6147 177.257 6.53857 177.1 6.53857H175.552C175.395 6.53857 175.305 6.6147 175.305 6.74791C175.305 7.50914 175.058 8.32747 174.542 9.12676C174.048 9.94508 173.24 10.3638 172.118 10.3638H170.211C170.054 10.3638 169.964 10.4399 169.964 10.5731V11.3343C169.986 11.4866 170.076 11.5627 170.233 11.5627Z" fill="#FBFAF6"/>
    <path d="M183.364 11.5627H185.833V25.7977C185.833 27.0347 186.394 28.0624 187.538 28.8617C188.705 29.68 190.051 30.0606 191.667 30.0606C193.485 30.0606 194.944 29.8132 196.043 29.2423C197.098 28.6904 197.659 27.9672 197.659 27.0728C197.659 26.3877 197.412 25.8358 196.963 25.4552C196.514 25.0746 195.864 24.8652 195.101 24.8652C194.338 24.8652 193.687 25.0746 193.238 25.4552C192.789 25.8358 192.542 26.3877 192.542 27.0728C192.542 27.4534 192.497 27.7579 192.34 27.9672C192.183 28.2146 191.936 28.3478 191.69 28.3478C191.241 28.3478 190.927 28.1385 190.792 27.7008C190.635 27.3202 190.545 26.6731 190.545 25.7787V11.5437H193.62C193.777 11.5437 193.866 11.4675 193.866 11.3343V10.5731C193.866 10.4399 193.777 10.3638 193.62 10.3638H190.545V6.74791C190.545 6.6147 190.455 6.53857 190.298 6.53857H188.75C188.593 6.53857 188.503 6.6147 188.503 6.74791C188.503 7.50914 188.256 8.32747 187.74 9.12676C187.246 9.94508 186.438 10.3638 185.316 10.3638H183.409C183.252 10.3638 183.162 10.4399 183.162 10.5731V11.3343C183.117 11.4866 183.229 11.5627 183.364 11.5627Z" fill="#FBFAF6"/>
    <path d="M202.953 28.6896C204.569 29.5841 206.319 30.0599 208.227 30.0599C210.134 30.0599 211.885 29.5841 213.545 28.6896C215.206 27.7952 216.507 26.5582 217.472 24.9786C218.437 23.4371 218.886 21.7815 218.886 19.9545C218.886 18.1656 218.437 16.5099 217.472 14.9684C216.507 13.427 215.206 12.19 213.545 11.2955C211.885 10.4011 210.134 9.92529 208.227 9.92529C206.319 9.92529 204.569 10.4011 202.953 11.2955C201.338 12.19 200.081 13.427 199.138 14.9684C198.173 16.5099 197.68 18.1656 197.68 19.9545C197.68 21.7815 198.173 23.4562 199.138 24.9786C200.081 26.5582 201.338 27.7952 202.953 28.6896ZM203.2 15.8629C203.694 14.6259 204.412 13.5982 205.31 12.8751C206.162 12.1519 207.172 11.7713 208.227 11.7713C209.326 11.7713 210.336 12.1519 211.234 12.8751C212.132 13.5982 212.85 14.6259 213.388 15.8629C213.882 17.0999 214.151 18.4701 214.151 19.9545C214.151 21.4389 213.904 22.8091 213.388 24.0461C212.827 25.3212 212.132 26.3489 211.234 27.072C210.336 27.7952 209.326 28.1758 208.227 28.1758C207.172 28.1758 206.162 27.7952 205.31 27.072C204.412 26.3489 203.694 25.3212 203.2 24.0461C202.639 22.8091 202.392 21.4389 202.392 19.9545C202.392 18.4701 202.662 17.0999 203.2 15.8629Z" fill="#FBFAF6"/>
</svg>
