<svg width="228" height="39" viewBox="0 0 228 39" fill="none" xmlns="http://www.w3.org/2000/svg">
    <path d="M84.0919 33.9297H1.23664C1.00318 33.9297 0.816406 34.0832 0.816406 34.275V35.8291C0.816406 36.0209 1.00318 36.1744 1.23664 36.1744H84.0919C84.3254 36.1744 84.5122 36.0209 84.5122 35.8291V34.275C84.5355 34.0832 84.3254 33.9297 84.0919 33.9297Z" fill="#FBFAF6"/>
    <path d="M96.8841 10.8302C96.9743 10.8302 97.0475 10.6157 97.0475 10.351C97.0475 10.0864 96.9743 9.87183 96.8841 9.87183C96.7939 9.87183 96.7207 10.0864 96.7207 10.351C96.7207 10.6157 96.7939 10.8302 96.8841 10.8302Z" fill="#FBFAF6"/>
    <path d="M107.342 11.3093C107.496 11.3093 107.622 11.0175 107.622 10.6576C107.622 10.2976 107.496 10.0059 107.342 10.0059C107.187 10.0059 107.062 10.2976 107.062 10.6576C107.062 11.0175 107.187 11.3093 107.342 11.3093Z" fill="#FBFAF6"/>
    <path d="M111.433 3.23332C111.876 3.6554 112.25 4.13504 112.577 4.65305C113.627 6.303 114.211 8.1448 114.421 10.3511C116.219 12.2121 118.296 13.6127 120.047 13.9964C119.207 11.061 119.464 10.6005 122.709 9.04652C123.059 8.87385 123.409 8.72037 123.759 8.58607C125.02 8.12562 126.327 7.68435 127.565 7.18553C129.572 6.37974 130.786 4.49956 130.553 2.67694C130.483 2.15893 130.179 1.87115 129.572 1.8136C128.755 1.75604 127.915 1.6793 127.098 1.73686C124.133 1.90952 121.285 1.545 118.623 0.432246C117.503 -0.028205 116.289 -0.0665806 115.051 0.0677177C112.67 0.297943 110.756 1.02699 109.425 2.31242C110.149 2.36998 110.872 2.69613 111.433 3.23332ZM117.526 2.92636C117.596 2.40835 118.016 2.3316 118.647 2.36997C118.67 2.71531 118.647 3.0031 118.717 3.27169C118.763 3.44436 118.997 3.59785 119.16 3.75133C119.347 3.57866 119.557 3.44436 119.674 3.25251C119.767 3.09902 119.744 2.88798 119.767 2.67694C120.397 2.88798 120.654 3.40599 120.444 3.94318C120.281 4.32689 119.487 4.57631 118.81 4.44201C117.923 4.26934 117.409 3.6554 117.526 2.92636Z" fill="#FBFAF6"/>
    <path d="M106.389 15.4353C106.763 15.2051 107.253 15.0516 107.697 14.9365C108.981 14.6103 110.242 14.265 111.269 13.5167C112.109 12.9028 112.553 12.1354 112.506 11.1953C112.389 9.16163 111.969 7.20472 110.825 5.3821C110.568 4.9792 110.265 4.5955 109.915 4.26934C109.424 3.78971 108.887 3.7897 108.491 4.3269C108.024 4.9792 107.673 5.68907 107.277 6.37974C107.183 6.53323 107.136 6.66753 107.043 6.84019C104.919 6.303 102.747 6.24544 100.553 6.303C100.436 6.303 100.249 6.14952 100.156 6.0344C99.7825 5.5164 99.4556 4.94083 99.0354 4.4612C98.5918 3.94319 98.1482 3.98156 97.7747 4.53794C97.4479 4.99839 97.1911 5.49721 97.0043 6.01522C96.6307 7.07042 96.3272 8.12562 96.0004 9.23838C96.2105 9.23838 96.3272 9.23838 96.444 9.23838C97.2844 9.23838 97.8681 9.56453 98.2183 10.1593C98.3117 10.3319 98.405 10.5046 98.4517 10.6773C98.7319 11.5406 98.4751 11.8284 97.3778 11.8476C96.9809 11.8476 96.5607 11.7133 96.1638 11.6366C96.4673 12.9028 97.3311 13.8621 98.7786 14.476C99.3856 14.7254 100.366 14.9748 100.856 15.3777C101.51 15.8765 101.3 16.7207 101.183 17.5265C101.067 18.3323 96.2105 23.2438 93.9459 25.2582C93.7825 25.3734 93.6191 25.5268 93.4323 25.6803C91.4946 27.407 89.4168 28.2512 87.1522 28.2512C85.4713 28.2512 84.0239 27.6948 82.7165 26.582C81.4091 25.5077 80.5686 24.0496 80.1951 22.2078C81.6659 22.6874 83.1134 22.8984 84.6309 22.8984C86.732 22.8984 88.553 22.5915 90.1172 22.0351C91.6814 21.4787 92.8954 20.7497 93.7358 19.752C94.5296 18.7544 94.9498 17.6992 94.9498 16.4905C94.9498 15.3394 94.5763 14.2074 93.8059 13.229C93.0121 12.2313 91.9849 11.4639 90.6775 10.9075C89.3234 10.3511 87.8059 10.0442 86.1717 10.0442C84.1406 10.0442 82.2962 10.4662 80.6387 11.368C78.9111 12.2697 77.6037 13.5167 76.6232 15.0708C75.6193 16.6248 75.1523 18.2939 75.1523 20.1357C75.1523 21.9775 75.666 23.6658 76.6698 25.2007C77.6737 26.7931 78.9811 28.0401 80.6387 28.9418C82.3196 29.8436 84.1406 30.3232 86.0783 30.3232C87.876 30.3232 89.5102 29.9587 91.051 29.2488C90.911 29.5366 90.7942 29.8436 90.6775 30.1697C90.0238 31.8005 90.0471 33.3929 91.1444 34.9085C92.802 37.2108 96.4206 37.5753 98.6385 35.6759C100.483 34.0836 100.81 31.0331 99.3389 29.1913C98.4517 28.0785 97.4945 28.0209 96.3739 29.0186C96.3272 29.057 96.2806 29.0953 96.2339 29.1337C95.7903 29.479 95.3 29.5558 94.7631 29.3256C94.2027 29.0761 94.1327 28.6349 94.2961 28.1936C94.7631 26.8506 96.9342 25.8722 98.5918 26.2559C100.623 26.7163 101.814 27.9058 102.14 29.4982C102.491 31.1674 102.467 32.8941 102.607 34.5824C102.631 34.9661 102.607 35.3498 102.677 35.7335C102.794 36.405 103.471 36.8846 104.288 36.923C104.312 36.923 104.335 36.923 104.382 36.923C104.405 36.923 104.428 36.923 104.475 36.923C104.779 36.923 105.059 36.8655 105.292 36.7312C105.806 36.5009 106.133 36.0788 106.156 35.5417C106.203 33.9109 106.179 32.2609 106.179 30.6302C106.156 30.6302 106.156 30.6302 106.133 30.6302C106.133 29.1337 106.226 27.6181 106.133 26.1216V25.7762C106.133 23.1862 105.736 17.6992 105.689 16.9126C105.642 16.0684 105.689 15.8382 106.389 15.4353ZM81.1056 16.3754C81.7826 14.994 82.6698 13.8813 83.8137 13.0755C84.9577 12.2505 86.1717 11.8668 87.4324 11.8668C88.4363 11.8668 89.2067 12.1738 89.837 12.7301C90.4207 13.3249 90.7242 14.0539 90.7242 14.9556C90.7242 15.8574 90.4207 16.7591 89.7203 17.6608C89.0433 18.5625 88.1094 19.3299 86.802 19.9439C85.4947 20.5962 83.9305 20.9415 82.0861 20.9799C81.8293 21.0182 81.4558 21.0183 80.9889 21.0183H80.1017V20.8456C80.055 19.2532 80.4286 17.7567 81.1056 16.3754ZM101.183 12.9412C101.02 12.9412 100.81 12.7493 100.693 12.615C100.553 12.4424 100.646 12.2889 100.926 12.3272C101.253 12.3656 101.58 12.4615 101.907 12.5383C101.93 12.5958 101.93 12.6534 101.954 12.6918C101.697 12.7685 101.44 12.922 101.183 12.9412ZM105.666 12.1738C105.362 12.0011 105.129 11.7709 104.825 11.5982C104.615 11.4639 104.638 11.3296 104.755 11.1377C105.432 10.0825 106.553 9.64127 107.79 9.54535C108.841 9.54535 109.611 9.92906 110.031 10.6005C110.101 10.6965 110.078 10.9075 110.008 10.9843C109.588 11.368 109.168 11.79 108.677 12.097C107.743 12.7109 106.646 12.7109 105.666 12.1738Z" fill="#FBFAF6"/>
    <path d="M227.439 33.9297H159.875C159.642 33.9297 159.455 34.0832 159.455 34.275V35.8291C159.455 36.0209 159.642 36.1744 159.875 36.1744H227.416C227.649 36.1744 227.836 36.0209 227.836 35.8291V34.275C227.859 34.0832 227.672 33.9297 227.439 33.9297Z" fill="#FBFAF6"/>
    <path d="M7.72756 28.6722C10.0855 29.9193 12.6536 30.5141 15.4084 30.5141C17.9298 30.5141 20.2177 29.996 22.3656 29.0176C24.4667 28.0199 26.2877 26.6961 27.8052 25.1037C28.062 24.7968 28.2254 24.5474 28.2254 24.2404V24.1061C28.2254 23.9334 28.132 23.7991 27.9686 23.684C27.8052 23.5497 27.6651 23.5114 27.5017 23.5114C27.4083 23.5114 27.3383 23.5114 27.2916 23.5497C27.0348 23.5881 26.778 23.7224 26.4511 23.9334C26.1476 24.1445 25.9375 24.3171 25.8675 24.3555C24.5134 25.5066 22.9959 26.5043 21.3617 27.3293C19.7508 28.1542 17.8598 28.5763 15.7586 28.5763C13.6575 28.5763 11.8365 28.0199 10.2723 26.9456C8.70809 25.8712 7.4941 24.4514 6.65364 22.6864C5.76648 20.9213 5.34626 18.9836 5.34626 16.8924C5.34626 14.782 5.81318 12.8059 6.70033 11.0408C7.58748 9.27574 8.84817 7.85602 10.4124 6.83919C11.9299 5.80317 13.6108 5.28517 15.3851 5.28517C16.996 5.28517 18.3734 5.66887 19.5173 6.49385C20.6613 7.31882 21.2449 8.71937 21.2449 10.7914C21.2449 11.4437 21.5484 12.0385 22.2488 12.5181C22.8792 13.0361 23.6496 13.2855 24.5601 13.2855C25.6574 13.2855 26.4978 12.9785 27.0815 12.4222C27.5951 11.8658 27.8752 11.2135 27.8752 10.4844C27.8752 9.44841 27.2916 8.37402 26.1943 7.26127C25.0504 6.18688 23.5329 5.24679 21.5951 4.51775C19.6574 3.7887 17.6263 3.44336 15.4318 3.44336C12.6536 3.44336 10.1089 4.03811 7.7509 5.24679C5.39295 6.49385 3.52526 8.12462 2.10115 10.1966C0.700383 12.2495 0 14.4942 0 16.8924C0 19.3481 0.677037 21.612 2.10115 23.7224C3.50191 25.8328 5.3696 27.4636 7.72756 28.6722Z" fill="#FBFAF6"/>
    <path d="M37.3296 18.2351C35.2284 18.8874 33.5709 19.7891 32.3569 20.9403C31.0962 22.0914 30.4658 23.396 30.4658 24.8157C30.4658 26.4465 31.1895 27.7319 32.6604 28.7296C34.0611 29.7272 35.9522 30.226 38.1934 30.226C40.7614 30.226 42.7926 29.3627 44.3101 27.6552C44.4034 28.4226 44.6836 29.0365 45.1505 29.4586C45.6174 29.8807 46.2945 30.1109 47.2517 30.1109C47.9287 30.1109 48.6524 29.9766 49.3528 29.7272C50.0298 29.5162 50.4968 29.2092 50.8703 28.9022C51.1738 28.5953 51.1738 28.4226 50.917 28.3459C49.703 27.8662 49.096 26.8878 49.096 25.2954V16.1055C49.096 14.7817 48.6758 13.6498 47.8353 12.7481C46.9949 11.8464 45.9443 11.1557 44.6369 10.7336C43.3295 10.3115 41.9288 10.0813 40.4579 10.0813C38.8938 10.0813 37.423 10.3307 36.0222 10.8103C34.6214 11.29 33.4541 11.9231 32.6137 12.7097C31.7265 13.5347 31.3063 14.3405 31.3063 15.2038C31.3063 15.8945 31.5631 16.4125 32.03 16.7962C32.4969 17.1799 33.0806 17.391 33.851 17.391C34.6214 17.391 35.2518 17.1799 35.742 16.7962C36.209 16.4125 36.4191 15.8945 36.4191 15.2038C36.4191 14.2062 36.7926 13.4388 37.5163 12.844C38.2401 12.2493 39.244 11.9423 40.4346 11.9423C41.5319 11.9423 42.4657 12.326 43.1427 13.055C43.8198 13.8225 44.1933 14.8585 44.1933 16.1055V17.1799C41.7186 17.1991 39.4074 17.5828 37.3296 18.2351ZM44.2167 22.36C44.2167 23.8565 43.7964 25.1611 43.0027 26.2738C42.2089 27.425 40.9015 28.0005 39.1272 28.0005C37.9132 28.0005 36.9794 27.6552 36.2557 27.0029C35.5319 26.3506 35.1584 25.6215 35.1584 24.8157C35.1584 22.9739 35.9988 21.5542 37.7265 20.5182C39.4541 19.5205 41.6019 18.9642 44.2167 18.8874V22.36Z" fill="#FBFAF6"/>
    <path d="M51.9933 29.7857H61.2383C61.4018 29.7857 61.4951 29.7089 61.4951 29.5747V28.8072C61.4951 28.6729 61.4018 28.5962 61.2383 28.5962C60.3512 28.5962 59.7675 28.3851 59.5107 27.9055C59.2072 27.4259 59.0438 26.7928 59.0438 25.9678V19.4831C59.0438 17.5454 59.464 15.953 60.3512 14.8018C61.2383 13.6507 62.3823 13.0368 63.8064 13.0368C65.9542 13.0368 67.0515 14.4181 67.0515 17.2V25.9678C67.0515 26.7928 66.8881 27.4259 66.6313 27.9055C66.3278 28.3851 65.7441 28.5962 64.857 28.5962C64.6936 28.5962 64.6002 28.6729 64.6002 28.8072V29.5747C64.6002 29.7089 64.6936 29.7857 64.857 29.7857H74.102C74.2655 29.7857 74.3588 29.7089 74.3588 29.5747V28.8072C74.3588 28.6729 74.2655 28.5962 74.102 28.5962C73.2149 28.5962 72.6312 28.3851 72.3744 27.9055C72.0709 27.4259 71.9075 26.7928 71.9075 25.9678V17.2C71.9075 15.0129 71.3939 13.2478 70.3433 11.9624C69.2927 10.677 67.6819 10.0247 65.4873 10.0247C64.0165 10.0247 62.7792 10.37 61.7286 11.099C60.6313 11.8281 59.7442 12.7682 59.0672 13.9385C59.0205 12.6914 58.8103 11.7513 58.4368 11.099C58.0166 10.4467 57.2228 10.159 56.0322 10.159C55.3551 10.159 54.6781 10.2933 54.001 10.5043C53.324 10.7537 52.787 11.0223 52.4835 11.3293C52.11 11.6362 52.11 11.8089 52.3902 11.924C53.6042 12.4037 54.2112 13.3821 54.2112 14.9745V25.9678C54.2112 26.7928 54.0477 27.4259 53.7909 27.9055C53.4874 28.3851 52.9038 28.5962 52.0166 28.5962C51.8532 28.5962 51.7598 28.6729 51.7598 28.8072V29.5747C51.7365 29.7089 51.8532 29.7857 51.9933 29.7857Z" fill="#FBFAF6"/>
    <path d="M153.011 6.53296C151.913 6.53296 150.816 6.8783 149.719 7.53061C148.622 8.22128 147.734 9.123 146.941 10.2741C145.727 9.89042 144.536 9.67937 143.229 9.67937C141.408 9.67937 139.68 10.0631 138.163 10.7921C136.645 11.5212 135.384 12.5572 134.497 13.8043C133.61 15.0897 133.143 16.471 133.143 17.9675C133.143 19.2146 133.447 20.3657 134.077 21.4401C134.707 22.5145 135.594 23.4545 136.692 24.2411C135.081 24.7975 134.24 25.6609 134.24 26.7736C134.24 27.541 134.707 28.2317 135.594 28.8265C134.754 29.1718 134.077 29.6514 133.563 30.2846C133.353 30.5532 133.19 30.8409 133.05 31.1671C130.902 32.0688 128.661 33.3351 129.384 32.5293C133.143 28.3277 131.346 22.1691 127.657 19.9628C124.085 17.814 119.883 18.4088 117.898 16.8739C115.914 15.3391 114.373 12.0967 114.373 12.0967C114.373 12.0967 113.556 13.9577 112.575 14.6676C111.291 15.6077 109.797 16.0298 108.28 16.4327C107.976 16.5094 107.766 16.5861 107.603 16.6437C107.603 16.6821 107.626 17.1233 107.626 17.1233C107.719 18.6582 108.046 23.3202 108.046 25.6992V26.0254C108.116 27.023 108.093 28.0015 108.069 28.9608V30.5532C108.069 31.0328 108.069 31.5124 108.069 31.9921C108.069 33.1432 108.069 34.3327 108.046 35.503C108.046 35.7908 107.976 36.0786 107.883 36.3472C108.887 37.6902 111.408 37.364 111.922 35.2728C112.318 33.6612 111.571 28.7497 111.922 27.0806C115.82 28.1166 118.925 29.0759 118.832 31.9153C118.785 33.2775 118.762 33.2391 117.151 33.3926C116.194 33.4885 115.213 33.6996 114.303 33.9874C112.435 34.5629 112.505 36.021 112.995 36.5007C113.673 37.1146 116.451 37.153 119.859 37.153C124.248 37.153 122.03 36.9611 125.299 36.8652C128.707 36.635 131.416 35.6373 133.307 34.5054C133.517 34.8507 133.82 35.1769 134.147 35.503C135.081 36.4047 136.342 37.0954 137.952 37.6134C139.563 38.1314 141.291 38.3808 143.182 38.3808C144.793 38.3808 146.52 38.1698 148.248 37.7285C149.976 37.3064 151.493 36.6158 152.684 35.6181C153.898 34.678 154.458 33.4694 154.458 31.9729C154.458 30.0735 153.314 28.7881 151.05 28.0974C148.808 27.4451 145.82 27.0998 142.225 27.0998C140.754 27.0998 139.447 27.023 138.349 26.7928C137.205 26.6201 136.622 26.3132 136.622 25.8527C136.622 25.6417 136.785 25.469 137.089 25.3347C137.345 25.2004 137.672 25.1621 137.976 25.1621C138.022 25.1237 138.069 25.1237 138.186 25.1237C139.703 25.8527 141.384 26.1981 143.159 26.1981C144.98 26.1981 146.661 25.8144 148.178 25.0853C149.696 24.3563 150.886 23.3202 151.797 22.0732C152.684 20.8261 153.151 19.4448 153.151 17.9483C153.151 16.3559 152.637 14.8595 151.633 13.5165C150.629 12.1927 149.275 11.195 147.618 10.5044C148.038 9.98635 148.552 9.5067 149.135 9.08462C149.719 8.70091 150.279 8.48988 150.816 8.48988C150.816 9.04626 151.073 9.52589 151.54 9.9096C152.007 10.2933 152.544 10.5044 153.221 10.5044C153.898 10.5044 154.481 10.2933 154.948 9.9096C155.415 9.52589 155.625 9.04626 155.625 8.48988C155.625 7.9335 155.415 7.45386 154.948 7.07015C154.528 6.70563 153.851 6.53296 153.011 6.53296ZM137.019 30.9944C137.392 30.5148 137.812 30.1695 138.373 29.9584C139.587 30.3038 141.034 30.5532 142.808 30.6875C145.587 30.9369 147.571 31.2438 148.762 31.5508C149.906 31.8961 150.489 32.4909 150.489 33.3542C150.489 34.256 149.812 34.9466 148.505 35.503C147.197 36.0594 145.423 36.328 143.229 36.328C141.198 36.328 139.563 35.9827 138.373 35.2536C137.112 34.5629 136.482 33.6612 136.482 32.5101C136.505 31.9729 136.645 31.4549 137.019 30.9944ZM148.365 17.9675C148.365 19.1186 148.155 20.1546 147.688 21.1523C147.221 22.1499 146.637 22.9557 145.867 23.5121C145.073 24.0685 144.186 24.3754 143.252 24.3754C142.318 24.3754 141.431 24.0685 140.637 23.5121C139.843 22.9557 139.236 22.1307 138.746 21.1523C138.279 20.1546 138.022 19.1378 138.022 17.9675C138.022 16.8164 138.279 15.6844 138.746 14.706C139.213 13.7083 139.843 12.9409 140.637 12.3845C141.431 11.8281 142.248 11.5212 143.252 11.5212C144.186 11.5212 145.073 11.8281 145.867 12.3845C146.661 12.9409 147.221 13.7083 147.688 14.706C148.155 15.7036 148.365 16.8164 148.365 17.9675Z" fill="#FBFAF6"/>
    <path d="M170.053 27.6361C170.146 28.4036 170.427 29.0175 170.893 29.4396C171.36 29.8617 172.037 30.0919 172.995 30.0919C173.672 30.0919 174.395 29.9576 175.096 29.7082C175.773 29.4971 176.24 29.1902 176.613 28.8832C176.917 28.5762 176.917 28.4036 176.66 28.3268C175.446 27.8472 174.839 26.8687 174.839 25.2763V16.0865C174.839 14.7627 174.419 13.6308 173.578 12.729C172.738 11.8273 171.687 11.1366 170.38 10.7146C169.072 10.2925 167.672 10.0623 166.201 10.0623C164.637 10.0623 163.166 10.3117 161.765 10.7913C160.364 11.2709 159.197 11.9041 158.357 12.6907C157.469 13.5156 157.049 14.3214 157.049 15.1848C157.049 15.8755 157.306 16.3935 157.773 16.7772C158.24 17.1609 158.824 17.3719 159.594 17.3719C160.388 17.3719 160.995 17.1609 161.485 16.7772C161.952 16.3935 162.162 15.8755 162.162 15.1848C162.162 14.1871 162.536 13.4197 163.259 12.825C163.983 12.2302 164.987 11.9232 166.178 11.9232C167.275 11.9232 168.209 12.307 168.886 13.036C169.563 13.8034 169.936 14.8394 169.936 16.0865V17.1609C167.438 17.1992 165.127 17.583 163.026 18.2353C160.925 18.8876 159.267 19.7893 158.053 20.9404C156.792 22.0915 156.162 23.3962 156.162 24.8159C156.162 26.4466 156.886 27.7321 158.357 28.7297C159.757 29.7274 161.648 30.2262 163.89 30.2262C166.504 30.207 168.536 29.3628 170.053 27.6361ZM160.901 24.7967C160.901 22.9549 161.742 21.5352 163.469 20.4991C165.197 19.5015 167.345 18.9451 169.96 18.8684V22.341C169.96 23.8374 169.539 25.142 168.746 26.2548C167.952 27.4059 166.645 27.9815 164.87 27.9815C163.656 27.9815 162.722 27.6361 161.999 26.9838C161.275 26.3507 160.901 25.6217 160.901 24.7967Z" fill="#FBFAF6"/>
    <path d="M177.099 11.6565H179.668V26.0072C179.668 27.2543 180.251 28.2903 181.442 29.0961C182.656 29.9211 184.057 30.3048 185.738 30.3048C187.629 30.3048 189.146 30.0554 190.29 29.4798C191.387 28.9234 191.971 28.1944 191.971 27.2927C191.971 26.602 191.714 26.0456 191.247 25.6619C190.78 25.2782 190.103 25.0672 189.309 25.0672C188.516 25.0672 187.839 25.2782 187.372 25.6619C186.905 26.0456 186.648 26.602 186.648 27.2927C186.648 27.6764 186.601 27.9834 186.438 28.1944C186.274 28.4438 186.018 28.5781 185.761 28.5781C185.294 28.5781 184.967 28.3671 184.827 27.9258C184.664 27.5421 184.57 26.8898 184.57 25.9881V11.6373H187.699C187.862 11.6373 187.955 11.5606 187.955 11.4263V10.6589C187.955 10.5246 187.862 10.4478 187.699 10.4478H184.5V6.80259C184.5 6.6683 184.407 6.59155 184.243 6.59155H182.633C182.469 6.59155 182.376 6.6683 182.376 6.80259C182.376 7.57001 182.119 8.39499 181.582 9.20078C181.068 10.0258 180.228 10.4478 179.061 10.4478H177.076C176.913 10.4478 176.819 10.5246 176.819 10.6589V11.4263C176.843 11.5798 176.936 11.6565 177.099 11.6565Z" fill="#FBFAF6"/>
    <path d="M190.765 11.6565H193.333V26.0072C193.333 27.2543 193.916 28.2903 195.107 29.0961C196.321 29.9211 197.722 30.3048 199.403 30.3048C201.294 30.3048 202.811 30.0554 203.955 29.4798C205.052 28.9234 205.636 28.1944 205.636 27.2927C205.636 26.602 205.379 26.0456 204.912 25.6619C204.445 25.2782 203.768 25.0672 202.975 25.0672C202.181 25.0672 201.504 25.2782 201.037 25.6619C200.57 26.0456 200.313 26.602 200.313 27.2927C200.313 27.6764 200.266 27.9834 200.103 28.1944C199.94 28.4438 199.683 28.5781 199.426 28.5781C198.959 28.5781 198.632 28.3671 198.492 27.9258C198.329 27.5421 198.235 26.8898 198.235 25.9881V11.6373H201.434C201.597 11.6373 201.69 11.5606 201.69 11.4263V10.6589C201.69 10.5246 201.597 10.4478 201.434 10.4478H198.235V6.80259C198.235 6.6683 198.142 6.59155 197.978 6.59155H196.368C196.204 6.59155 196.111 6.6683 196.111 6.80259C196.111 7.57001 195.854 8.39499 195.317 9.20078C194.803 10.0258 193.963 10.4478 192.796 10.4478H190.811C190.648 10.4478 190.554 10.5246 190.554 10.6589V11.4263C190.508 11.5798 190.624 11.6565 190.765 11.6565Z" fill="#FBFAF6"/>
    <path d="M211.14 28.9227C212.821 29.8244 214.642 30.3041 216.626 30.3041C218.61 30.3041 220.431 29.8244 222.159 28.9227C223.887 28.021 225.241 26.774 226.245 25.1816C227.248 23.6275 227.715 21.9584 227.715 20.1166C227.715 18.3132 227.248 16.644 226.245 15.09C225.241 13.536 223.887 12.2889 222.159 11.3872C220.431 10.4855 218.61 10.0059 216.626 10.0059C214.642 10.0059 212.821 10.4855 211.14 11.3872C209.459 12.2889 208.151 13.536 207.171 15.09C206.167 16.644 205.653 18.3132 205.653 20.1166C205.653 21.9584 206.167 23.6467 207.171 25.1816C208.151 26.774 209.459 28.021 211.14 28.9227ZM211.396 15.9917C211.91 14.7447 212.657 13.7087 213.591 12.9796C214.478 12.2506 215.529 11.8668 216.626 11.8668C217.77 11.8668 218.821 12.2506 219.754 12.9796C220.688 13.7087 221.435 14.7447 221.996 15.9917C222.509 17.2388 222.789 18.6201 222.789 20.1166C222.789 21.6131 222.533 22.9944 221.996 24.2415C221.412 25.5269 220.688 26.5629 219.754 27.292C218.821 28.021 217.77 28.4047 216.626 28.4047C215.529 28.4047 214.478 28.021 213.591 27.292C212.657 26.5629 211.91 25.5269 211.396 24.2415C210.813 22.9944 210.556 21.6131 210.556 20.1166C210.556 18.6201 210.836 17.2388 211.396 15.9917Z" fill="#FBFAF6"/>
</svg>
