<svg width="113" height="20" viewBox="0 0 113 20" fill="none" xmlns="http://www.w3.org/2000/svg">
    <path d="M41.7072 17.366H0.613391C0.497601 17.366 0.404968 17.4445 0.404968 17.5427V18.3381C0.404968 18.4363 0.497601 18.5149 0.613391 18.5149H41.7072C41.823 18.5149 41.9157 18.4363 41.9157 18.3381V17.5427C41.9272 17.4445 41.823 17.366 41.7072 17.366Z" fill="#FBFAF6"/>
    <path d="M48.052 5.54359C48.0968 5.54359 48.1331 5.43368 48.1331 5.2981C48.1331 5.16252 48.0968 5.05261 48.052 5.05261C48.0072 5.05261 47.9709 5.16252 47.9709 5.2981C47.9709 5.43368 48.0072 5.54359 48.052 5.54359Z" fill="#FBFAF6"/>
    <path d="M53.2397 5.78894C53.3165 5.78894 53.3787 5.63947 53.3787 5.45508C53.3787 5.27069 53.3165 5.12122 53.2397 5.12122C53.1629 5.12122 53.1006 5.27069 53.1006 5.45508C53.1006 5.63947 53.1629 5.78894 53.2397 5.78894Z" fill="#FBFAF6"/>
    <path d="M55.2675 1.65488C55.4875 1.87091 55.6727 2.1164 55.8348 2.38153C56.3559 3.22601 56.6454 4.16868 56.7496 5.29792C57.6412 6.25042 58.6717 6.96724 59.5401 7.16363C59.1233 5.66125 59.2506 5.42558 60.8601 4.6302C61.0338 4.54182 61.2075 4.46327 61.3812 4.39453C62.0064 4.15886 62.6549 3.93301 63.2685 3.6777C64.2643 3.26528 64.8664 2.30297 64.7507 1.37012C64.7159 1.10499 64.5654 0.957695 64.2643 0.928237C63.8591 0.898778 63.4422 0.859501 63.037 0.888959C61.5664 0.977335 60.1538 0.790765 58.8338 0.221233C58.278 -0.0144359 57.6759 -0.0340774 57.0622 0.0346593C55.8811 0.152494 54.9317 0.525637 54.2717 1.18354C54.6306 1.213 54.9896 1.37993 55.2675 1.65488ZM58.2896 1.49777C58.3243 1.23264 58.5327 1.19336 58.8454 1.213C58.8569 1.38975 58.8454 1.53705 58.8801 1.67452C58.9033 1.7629 59.0191 1.84145 59.1001 1.92001C59.1927 1.83163 59.2969 1.7629 59.3548 1.6647C59.4012 1.58614 59.3896 1.47813 59.4012 1.37012C59.7138 1.47813 59.8412 1.74326 59.737 2.0182C59.6559 2.21459 59.2622 2.34225 58.9264 2.27351C58.4864 2.18514 58.2317 1.87091 58.2896 1.49777Z" fill="#FBFAF6"/>
    <path d="M52.7648 7.90007C52.9501 7.78223 53.1932 7.70368 53.4132 7.64476C54.0501 7.47783 54.6753 7.30108 55.1848 6.91812C55.6016 6.60389 55.8216 6.21111 55.7985 5.72995C55.7406 4.68908 55.5322 3.68749 54.9648 2.75464C54.8374 2.54843 54.6869 2.35204 54.5132 2.18511C54.2701 1.93962 54.0037 1.93962 53.8069 2.21456C53.5753 2.54843 53.4016 2.91175 53.2048 3.26525C53.1585 3.34381 53.1353 3.41255 53.089 3.50092C52.0353 3.22598 50.9585 3.19652 49.87 3.22597C49.8121 3.22597 49.7195 3.14742 49.6732 3.0885C49.4879 2.82337 49.3258 2.52879 49.1174 2.2833C48.8974 2.01818 48.6774 2.03781 48.4921 2.32258C48.33 2.55825 48.2027 2.81355 48.11 3.07868C47.9248 3.61876 47.7742 4.15883 47.6121 4.72836C47.7164 4.72836 47.7742 4.72836 47.8321 4.72836C48.249 4.72836 48.5385 4.89529 48.7121 5.1997C48.7585 5.28808 48.8048 5.37645 48.8279 5.46483C48.9669 5.90671 48.8395 6.054 48.2953 6.06382C48.0985 6.06382 47.89 5.99508 47.6932 5.9558C47.8437 6.60389 48.2721 7.09487 48.99 7.40909C49.2911 7.53675 49.7774 7.6644 50.0206 7.87061C50.3448 8.12592 50.2406 8.55798 50.1827 8.9704C50.1248 9.38282 47.7163 11.8966 46.5932 12.9277C46.5121 12.9866 46.4311 13.0651 46.3385 13.1437C45.3774 14.0275 44.3469 14.4595 43.2237 14.4595C42.39 14.4595 41.6721 14.1747 41.0237 13.6052C40.3753 13.0553 39.9584 12.309 39.7732 11.3664C40.5026 11.6118 41.2205 11.7199 41.9732 11.7199C43.0153 11.7199 43.9184 11.5627 44.6942 11.278C45.47 10.9932 46.0721 10.6201 46.489 10.1095C46.8827 9.59885 47.0911 9.05877 47.0911 8.44014C47.0911 7.85097 46.9058 7.27162 46.5237 6.77082C46.13 6.26021 45.6206 5.86743 44.9721 5.58266C44.3005 5.29789 43.5479 5.14078 42.7374 5.14078C41.73 5.14078 40.8153 5.35681 39.9932 5.81833C39.1363 6.27985 38.4879 6.91812 38.0016 7.7135C37.5037 8.50888 37.2721 9.36318 37.2721 10.3059C37.2721 11.2485 37.5268 12.1126 38.0247 12.8982C38.5226 13.7132 39.1711 14.3515 39.9932 14.813C40.8268 15.2745 41.73 15.52 42.6911 15.52C43.5826 15.52 44.3932 15.3334 45.1574 14.9701C45.0879 15.1174 45.03 15.2745 44.9721 15.4415C44.6479 16.2761 44.6595 17.0911 45.2037 17.8669C46.0258 19.0452 47.8206 19.2318 48.9206 18.2597C49.8353 17.4446 49.9974 15.8833 49.2679 14.9407C48.8279 14.3711 48.3532 14.3417 47.7974 14.8523C47.7742 14.8719 47.7511 14.8916 47.7279 14.9112C47.5079 15.088 47.2648 15.1272 46.9985 15.0094C46.7206 14.8817 46.6858 14.6559 46.7669 14.4301C46.9985 13.7427 48.0753 13.2419 48.8974 13.4383C49.9048 13.6739 50.4953 14.2828 50.6574 15.0978C50.8311 15.9521 50.8195 16.8358 50.889 17.7C50.9006 17.8963 50.889 18.0927 50.9237 18.2891C50.9816 18.6328 51.3174 18.8783 51.7227 18.8979C51.7343 18.8979 51.7458 18.8979 51.769 18.8979C51.7806 18.8979 51.7922 18.8979 51.8153 18.8979C51.9658 18.8979 52.1048 18.8685 52.2206 18.7997C52.4753 18.6819 52.6374 18.4659 52.649 18.1909C52.6722 17.3563 52.6606 16.5118 52.6606 15.6771C52.649 15.6771 52.649 15.6771 52.6374 15.6771C52.6374 14.9112 52.6837 14.1355 52.6374 13.3695V13.1928C52.6374 11.8672 52.4406 9.05877 52.4174 8.65617C52.3943 8.22411 52.4174 8.10628 52.7648 7.90007ZM40.2247 8.38122C40.5605 7.67422 41.0005 7.10469 41.5679 6.69227C42.1353 6.27003 42.7374 6.07364 43.3626 6.07364C43.8605 6.07364 44.2426 6.23075 44.5553 6.51552C44.8448 6.81992 44.9953 7.19306 44.9953 7.65458C44.9953 8.1161 44.8448 8.57762 44.4974 9.03913C44.1616 9.50065 43.6984 9.89343 43.05 10.2077C42.4016 10.5415 41.6258 10.7183 40.7111 10.7379C40.5837 10.7575 40.3984 10.7576 40.1668 10.7576H39.7268V10.6692C39.7037 9.85415 39.8889 9.08823 40.2247 8.38122ZM50.1827 6.62353C50.1016 6.62353 49.9974 6.52534 49.9395 6.4566C49.87 6.36822 49.9164 6.28967 50.0553 6.30931C50.2174 6.32895 50.3795 6.37804 50.5416 6.41732C50.5532 6.44678 50.5532 6.47624 50.5648 6.49588C50.4374 6.53516 50.31 6.61371 50.1827 6.62353ZM52.4058 6.23075C52.2553 6.14237 52.1395 6.02454 51.989 5.93616C51.8848 5.86743 51.8964 5.79869 51.9543 5.7005C52.2901 5.16042 52.8458 4.93457 53.4595 4.88548C53.9806 4.88548 54.3627 5.08187 54.5711 5.42555C54.6059 5.47465 54.5943 5.58266 54.5595 5.62194C54.3511 5.81833 54.1427 6.03436 53.8995 6.19147C53.4364 6.5057 52.8922 6.5057 52.4058 6.23075Z" fill="#FBFAF6"/>
    <path d="M112.802 17.366H79.2921C79.1763 17.366 79.0837 17.4445 79.0837 17.5427V18.3381C79.0837 18.4363 79.1763 18.5149 79.2921 18.5149H112.79C112.906 18.5149 112.999 18.4363 112.999 18.3381V17.5427C113.01 17.4445 112.917 17.366 112.802 17.366Z" fill="#FBFAF6"/>
    <path d="M3.83265 14.6751C5.00213 15.3134 6.27582 15.6178 7.64214 15.6178C8.89267 15.6178 10.0274 15.3527 11.0927 14.8519C12.1348 14.3413 13.038 13.6637 13.7906 12.8487C13.918 12.6916 13.999 12.5639 13.999 12.4068V12.3381C13.999 12.2497 13.9527 12.181 13.8716 12.122C13.7906 12.0533 13.7211 12.0337 13.6401 12.0337C13.5937 12.0337 13.559 12.0337 13.5358 12.0533C13.4085 12.073 13.2811 12.1417 13.119 12.2497C12.9685 12.3577 12.8643 12.4461 12.8295 12.4657C12.1579 13.0549 11.4053 13.5655 10.5948 13.9878C9.79583 14.41 8.85793 14.626 7.81582 14.626C6.77371 14.626 5.87055 14.3413 5.09476 13.7914C4.31897 13.2415 3.71686 12.5148 3.30001 11.6114C2.86001 10.708 2.65159 9.71627 2.65159 8.64594C2.65159 7.56579 2.88317 6.55438 3.32317 5.65098C3.76317 4.74759 4.38844 4.02094 5.16423 3.50051C5.91687 2.97025 6.75055 2.70513 7.63056 2.70513C8.42951 2.70513 9.11267 2.90152 9.68004 3.32375C10.2474 3.74599 10.5369 4.46282 10.5369 5.52333C10.5369 5.85719 10.6874 6.1616 11.0348 6.40709C11.3474 6.67221 11.7295 6.79987 12.1811 6.79987C12.7253 6.79987 13.1422 6.64276 13.4316 6.35799C13.6864 6.07322 13.8253 5.73936 13.8253 5.36622C13.8253 4.83596 13.5358 4.28607 12.9916 3.71654C12.4243 3.16664 11.6716 2.68549 10.7106 2.31235C9.74951 1.9392 8.74214 1.76245 7.65372 1.76245C6.27582 1.76245 5.01371 2.06686 3.84423 2.68549C2.67475 3.32375 1.74843 4.15842 1.04211 5.21892C0.34737 6.26961 0 7.4185 0 8.64594C0 9.90284 0.335791 11.0615 1.04211 12.1417C1.73685 13.2218 2.66317 14.0565 3.83265 14.6751Z" fill="#FBFAF6"/>
    <path d="M18.5138 9.33309C17.4717 9.66695 16.6496 10.1285 16.0475 10.7176C15.4223 11.3068 15.1096 11.9745 15.1096 12.7012C15.1096 13.5358 15.4686 14.1938 16.198 14.7044C16.8928 15.215 17.8307 15.4703 18.9423 15.4703C20.216 15.4703 21.2233 15.0284 21.976 14.1545C22.0223 14.5473 22.1612 14.8615 22.3928 15.0775C22.6244 15.2935 22.9602 15.4114 23.4349 15.4114C23.7707 15.4114 24.1297 15.3426 24.477 15.215C24.8128 15.107 25.0444 14.9499 25.2297 14.7927C25.3802 14.6356 25.3802 14.5473 25.2528 14.508C24.6507 14.2625 24.3497 13.7617 24.3497 12.9467V8.24312C24.3497 7.56557 24.1412 6.98622 23.7244 6.5247C23.3075 6.06319 22.7865 5.70968 22.1381 5.49365C21.4896 5.27762 20.7949 5.15979 20.0654 5.15979C19.2896 5.15979 18.5602 5.28744 17.8654 5.53293C17.1707 5.77842 16.5917 6.10247 16.1749 6.50507C15.7349 6.92731 15.5265 7.33973 15.5265 7.7816C15.5265 8.13511 15.6538 8.40023 15.8854 8.59662C16.117 8.79301 16.4065 8.90103 16.7886 8.90103C17.1707 8.90103 17.4833 8.79301 17.7265 8.59662C17.9581 8.40023 18.0623 8.13511 18.0623 7.7816C18.0623 7.27099 18.2475 6.87821 18.6065 6.5738C18.9654 6.2694 19.4633 6.11229 20.0539 6.11229C20.5981 6.11229 21.0612 6.30867 21.397 6.68182C21.7328 7.0746 21.9181 7.60485 21.9181 8.24312V8.79301C20.6907 8.80283 19.5444 8.99922 18.5138 9.33309ZM21.9296 11.4443C21.9296 12.2102 21.7212 12.8779 21.3275 13.4475C20.9339 14.0366 20.2854 14.3312 19.4054 14.3312C18.8033 14.3312 18.3402 14.1545 17.9812 13.8206C17.6223 13.4867 17.437 13.1136 17.437 12.7012C17.437 11.7585 17.8538 11.0319 18.7107 10.5016C19.5675 9.991 20.6328 9.70623 21.9296 9.66695V11.4443Z" fill="#FBFAF6"/>
    <path d="M25.7874 15.245H30.3727C30.4538 15.245 30.5001 15.2057 30.5001 15.137V14.7442C30.5001 14.6754 30.4538 14.6362 30.3727 14.6362C29.9327 14.6362 29.6432 14.5281 29.5159 14.2827C29.3653 14.0372 29.2843 13.7131 29.2843 13.2909V9.97188C29.2843 8.98011 29.4927 8.16509 29.9327 7.57592C30.3727 6.98675 30.9401 6.67252 31.6464 6.67252C32.7117 6.67252 33.2559 7.37953 33.2559 8.80336V13.2909C33.2559 13.7131 33.1748 14.0372 33.0475 14.2827C32.8969 14.5281 32.6075 14.6362 32.1675 14.6362C32.0864 14.6362 32.0401 14.6754 32.0401 14.7442V15.137C32.0401 15.2057 32.0864 15.245 32.1675 15.245H36.7527C36.8338 15.245 36.8801 15.2057 36.8801 15.137V14.7442C36.8801 14.6754 36.8338 14.6362 36.7527 14.6362C36.3127 14.6362 36.0233 14.5281 35.8959 14.2827C35.7454 14.0372 35.6643 13.7131 35.6643 13.2909V8.80336C35.6643 7.68394 35.4096 6.78054 34.8885 6.12263C34.3675 5.46472 33.5685 5.13086 32.4801 5.13086C31.7506 5.13086 31.1369 5.30761 30.6159 5.68075C30.0717 6.05389 29.6317 6.53505 29.2959 7.13404C29.2727 6.49577 29.1685 6.01461 28.9832 5.68075C28.7748 5.34689 28.3811 5.19959 27.7906 5.19959C27.4548 5.19959 27.119 5.26833 26.7832 5.37635C26.4474 5.504 26.1811 5.64147 26.0306 5.79859C25.8453 5.9557 25.8453 6.04407 25.9843 6.10299C26.5864 6.34848 26.8874 6.84928 26.8874 7.6643V13.2909C26.8874 13.7131 26.8064 14.0372 26.679 14.2827C26.5285 14.5281 26.239 14.6362 25.799 14.6362C25.718 14.6362 25.6716 14.6754 25.6716 14.7442V15.137C25.6601 15.2057 25.718 15.245 25.7874 15.245Z" fill="#FBFAF6"/>
    <path d="M75.8896 3.34375C75.3454 3.34375 74.8012 3.5205 74.257 3.85437C73.7128 4.20787 73.2728 4.66939 72.8791 5.25856C72.277 5.06217 71.6864 4.95415 71.038 4.95415C70.1349 4.95415 69.278 5.15054 68.5254 5.52369C67.7727 5.89683 67.1475 6.42708 66.7075 7.06535C66.2675 7.72326 66.0359 8.43026 66.0359 9.19619C66.0359 9.83446 66.1864 10.4236 66.499 10.9735C66.8117 11.5234 67.2517 12.0046 67.7959 12.4072C66.9969 12.6919 66.5801 13.1338 66.5801 13.7033C66.5801 14.0961 66.8117 14.4496 67.2517 14.754C66.8348 14.9308 66.499 15.1763 66.2443 15.5003C66.1401 15.6378 66.059 15.7851 65.9896 15.952C64.9243 16.4135 63.8127 17.0616 64.1717 16.6492C66.0359 14.4987 65.1443 11.3467 63.3148 10.2174C61.5432 9.11763 59.459 9.42204 58.4748 8.63647C57.4906 7.85091 56.7264 6.19141 56.7264 6.19141C56.7264 6.19141 56.3211 7.14391 55.8348 7.50723C55.1979 7.98838 54.4569 8.20442 53.7043 8.41063C53.5537 8.4499 53.4495 8.48918 53.3685 8.51864C53.3685 8.53828 53.38 8.76413 53.38 8.76413C53.4264 9.54969 53.5885 11.9358 53.5885 13.1535V13.3204C53.6232 13.831 53.6116 14.3318 53.6 14.8228V15.6378C53.6 15.8833 53.6 16.1288 53.6 16.3743C53.6 16.9634 53.6 17.5722 53.5885 18.1712C53.5885 18.3185 53.5537 18.4658 53.5074 18.6033C54.0053 19.2907 55.2558 19.1237 55.5106 18.0534C55.7074 17.2286 55.3369 14.7148 55.5106 13.8605C57.4443 14.3907 58.9843 14.8817 58.938 16.335C58.9148 17.0322 58.9032 17.0125 58.1043 17.0911C57.6295 17.1402 57.1432 17.2482 56.6916 17.3955C55.7653 17.6901 55.8001 18.4364 56.0432 18.6818C56.379 18.9961 57.7569 19.0157 59.4474 19.0157C61.6243 19.0157 60.5243 18.9175 62.1453 18.8684C63.8359 18.7506 65.179 18.24 66.1169 17.6606C66.2212 17.8374 66.3717 18.0043 66.5338 18.1712C66.9969 18.6327 67.6222 18.9863 68.4212 19.2514C69.2201 19.5165 70.077 19.6442 71.0149 19.6442C71.8138 19.6442 72.6707 19.5361 73.5275 19.3103C74.3843 19.0943 75.137 18.7408 75.7275 18.2302C76.3296 17.749 76.6075 17.1304 76.6075 16.3644C76.6075 15.3923 76.0401 14.7344 74.917 14.3809C73.8054 14.047 72.3233 13.8703 70.5401 13.8703C69.8106 13.8703 69.1622 13.831 68.618 13.7132C68.0506 13.6248 67.7612 13.4677 67.7612 13.232C67.7612 13.124 67.8422 13.0356 67.9927 12.9669C68.1201 12.8981 68.2822 12.8785 68.4327 12.8785C68.4559 12.8589 68.4791 12.8589 68.537 12.8589C69.2896 13.232 70.1233 13.4088 71.0033 13.4088C71.9064 13.4088 72.7401 13.2124 73.4928 12.8392C74.2454 12.4661 74.8359 11.9358 75.2875 11.2976C75.7275 10.6593 75.9591 9.95229 75.9591 9.18637C75.9591 8.37135 75.7044 7.60542 75.2065 6.91806C74.7086 6.24051 74.037 5.7299 73.2149 5.37639C73.4233 5.11127 73.678 4.86578 73.9675 4.64975C74.257 4.45336 74.5349 4.34534 74.8012 4.34534C74.8012 4.63011 74.9286 4.8756 75.1601 5.07199C75.3917 5.26838 75.658 5.37639 75.9938 5.37639C76.3296 5.37639 76.6191 5.26838 76.8507 5.07199C77.0823 4.8756 77.1865 4.63011 77.1865 4.34534C77.1865 4.06058 77.0823 3.81509 76.8507 3.6187C76.6423 3.43212 76.3065 3.34375 75.8896 3.34375ZM67.958 15.8636C68.1433 15.6182 68.3517 15.4414 68.6296 15.3334C69.2317 15.5101 69.9496 15.6378 70.8296 15.7065C72.2075 15.8342 73.1917 15.9913 73.7822 16.1484C74.3496 16.3252 74.6391 16.6296 74.6391 17.0714C74.6391 17.533 74.3033 17.8865 73.6549 18.1712C73.0064 18.456 72.1264 18.5935 71.038 18.5935C70.0306 18.5935 69.2201 18.4167 68.6296 18.0436C68.0043 17.6901 67.6917 17.2286 67.6917 16.6394C67.7033 16.3644 67.7727 16.0993 67.958 15.8636ZM73.5854 9.19619C73.5854 9.78536 73.4812 10.3156 73.2496 10.8262C73.018 11.3368 72.7285 11.7493 72.3464 12.034C71.9528 12.3188 71.5128 12.4759 71.0496 12.4759C70.5864 12.4759 70.1464 12.3188 69.7527 12.034C69.3591 11.7493 69.058 11.327 68.8148 10.8262C68.5833 10.3156 68.4559 9.79518 68.4559 9.19619C68.4559 8.60702 68.5833 8.02766 68.8148 7.52687C69.0464 7.01625 69.3591 6.62347 69.7527 6.33871C70.1464 6.05394 70.5517 5.89683 71.0496 5.89683C71.5128 5.89683 71.9528 6.05394 72.3464 6.33871C72.7401 6.62347 73.018 7.01625 73.2496 7.52687C73.4812 8.03748 73.5854 8.60702 73.5854 9.19619Z" fill="#FBFAF6"/>
    <path d="M84.3425 14.1448C84.3888 14.5376 84.5278 14.8518 84.7593 15.0679C84.9909 15.2839 85.3267 15.4017 85.8015 15.4017C86.1372 15.4017 86.4962 15.333 86.8436 15.2053C87.1794 15.0973 87.4109 14.9402 87.5962 14.7831C87.7467 14.626 87.7467 14.5376 87.6194 14.4983C87.0173 14.2528 86.7162 13.7521 86.7162 12.937V8.23348C86.7162 7.55593 86.5078 6.97658 86.0909 6.51506C85.6741 6.05354 85.153 5.70004 84.5046 5.48401C83.8562 5.26798 83.1614 5.15015 82.432 5.15015C81.6562 5.15015 80.9267 5.2778 80.232 5.52329C79.5372 5.76878 78.9583 6.09282 78.5414 6.49542C78.1014 6.91766 77.893 7.33008 77.893 7.77196C77.893 8.12546 78.0204 8.39059 78.2519 8.58698C78.4835 8.78337 78.773 8.89139 79.1551 8.89139C79.5488 8.89139 79.8499 8.78337 80.093 8.58698C80.3246 8.39059 80.4288 8.12546 80.4288 7.77196C80.4288 7.26135 80.6141 6.86856 80.973 6.56416C81.332 6.25975 81.8299 6.10264 82.4204 6.10264C82.9646 6.10264 83.4278 6.29903 83.7636 6.67217C84.0993 7.06495 84.2846 7.59521 84.2846 8.23348V8.78337C83.0457 8.80301 81.8993 8.9994 80.8572 9.33326C79.8151 9.66713 78.993 10.1286 78.3909 10.7178C77.7656 11.307 77.453 11.9747 77.453 12.7014C77.453 13.536 77.8119 14.1939 78.5414 14.7045C79.2362 15.2152 80.1741 15.4705 81.2856 15.4705C82.5825 15.4606 83.5899 15.0286 84.3425 14.1448ZM79.8035 12.6915C79.8035 11.7489 80.2204 11.0222 81.0772 10.492C81.9341 9.98135 82.9993 9.69659 84.2962 9.65731V11.4346C84.2962 12.2006 84.0878 12.8683 83.6941 13.4378C83.3004 14.027 82.652 14.3216 81.772 14.3216C81.1699 14.3216 80.7067 14.1448 80.3478 13.811C79.9888 13.4869 79.8035 13.1138 79.8035 12.6915Z" fill="#FBFAF6"/>
    <path d="M87.8376 5.96614H89.1112V13.3111C89.1112 13.9494 89.4007 14.4797 89.9912 14.8921C90.5934 15.3143 91.2881 15.5107 92.1218 15.5107C93.0597 15.5107 93.8123 15.3831 94.3797 15.0885C94.9239 14.8037 95.2134 14.4306 95.2134 13.969C95.2134 13.6155 95.086 13.3308 94.8544 13.1344C94.6228 12.938 94.2871 12.83 93.8934 12.83C93.4997 12.83 93.1639 12.938 92.9323 13.1344C92.7007 13.3308 92.5734 13.6155 92.5734 13.969C92.5734 14.1654 92.5502 14.3225 92.4691 14.4306C92.3881 14.5582 92.2607 14.627 92.1334 14.627C91.9018 14.627 91.7397 14.5189 91.6702 14.2931C91.5891 14.0967 91.5428 13.7628 91.5428 13.3013V5.95632H93.0944C93.1755 5.95632 93.2218 5.91704 93.2218 5.8483V5.45552C93.2218 5.38678 93.1755 5.3475 93.0944 5.3475H91.5081V3.48179C91.5081 3.41306 91.4618 3.37378 91.3807 3.37378H90.5818C90.5007 3.37378 90.4544 3.41306 90.4544 3.48179C90.4544 3.87458 90.327 4.29682 90.0607 4.70924C89.806 5.13147 89.3891 5.3475 88.8102 5.3475H87.826C87.7449 5.3475 87.6986 5.38678 87.6986 5.45552V5.8483C87.7102 5.92686 87.7565 5.96614 87.8376 5.96614Z" fill="#FBFAF6"/>
    <path d="M94.6123 5.96614H95.886V13.3111C95.886 13.9494 96.1755 14.4797 96.766 14.8921C97.3681 15.3143 98.0629 15.5107 98.8966 15.5107C99.8345 15.5107 100.587 15.3831 101.154 15.0885C101.699 14.8037 101.988 14.4306 101.988 13.969C101.988 13.6155 101.861 13.3308 101.629 13.1344C101.398 12.938 101.062 12.83 100.668 12.83C100.274 12.83 99.9387 12.938 99.7071 13.1344C99.4755 13.3308 99.3481 13.6155 99.3481 13.969C99.3481 14.1654 99.325 14.3225 99.2439 14.4306C99.1629 14.5582 99.0355 14.627 98.9081 14.627C98.6766 14.627 98.5144 14.5189 98.445 14.2931C98.3639 14.0967 98.3176 13.7628 98.3176 13.3013V5.95632H99.9039C99.985 5.95632 100.031 5.91704 100.031 5.8483V5.45552C100.031 5.38678 99.985 5.3475 99.9039 5.3475H98.3176V3.48179C98.3176 3.41306 98.2713 3.37378 98.1902 3.37378H97.3913C97.3102 3.37378 97.2639 3.41306 97.2639 3.48179C97.2639 3.87458 97.1365 4.29682 96.8702 4.70924C96.6155 5.13147 96.1986 5.3475 95.6197 5.3475H94.6355C94.5544 5.3475 94.5081 5.38678 94.5081 5.45552V5.8483C94.485 5.92686 94.5428 5.96614 94.6123 5.96614Z" fill="#FBFAF6"/>
    <path d="M104.72 14.8033C105.554 15.2648 106.457 15.5103 107.441 15.5103C108.426 15.5103 109.329 15.2648 110.186 14.8033C111.043 14.3418 111.714 13.7035 112.212 12.8885C112.71 12.0931 112.941 11.2388 112.941 10.2961C112.941 9.37307 112.71 8.51877 112.212 7.72339C111.714 6.92801 111.043 6.28974 110.186 5.82822C109.329 5.3667 108.426 5.12122 107.441 5.12122C106.457 5.12122 105.554 5.3667 104.72 5.82822C103.887 6.28974 103.238 6.92801 102.752 7.72339C102.254 8.51877 101.999 9.37307 101.999 10.2961C101.999 11.2388 102.254 12.1029 102.752 12.8885C103.238 13.7035 103.887 14.3418 104.72 14.8033ZM104.848 8.18491C105.102 7.54664 105.473 7.01638 105.936 6.64324C106.376 6.2701 106.897 6.07371 107.441 6.07371C108.009 6.07371 108.53 6.2701 108.993 6.64324C109.456 7.01638 109.827 7.54664 110.105 8.18491C110.359 8.82317 110.498 9.53018 110.498 10.2961C110.498 11.062 110.371 11.769 110.105 12.4073C109.815 13.0652 109.456 13.5955 108.993 13.9686C108.53 14.3418 108.009 14.5381 107.441 14.5381C106.897 14.5381 106.376 14.3418 105.936 13.9686C105.473 13.5955 105.102 13.0652 104.848 12.4073C104.558 11.769 104.431 11.062 104.431 10.2961C104.431 9.53018 104.57 8.82317 104.848 8.18491Z" fill="#FBFAF6"/>
</svg>
