<svg width="34" height="34" viewBox="0 0 34 34" fill="none" xmlns="http://www.w3.org/2000/svg">
    <circle cx="17" cy="17" r="15.4062" fill="#FBFAF6" stroke="#9A0F36" stroke-width="3.1875"/>
    <path d="M10.2466 15.9375C9.60351 15.9375 9.0822 16.4588 9.0822 17.1019C9.0822 17.7449 9.60351 18.2663 10.2466 18.2663V15.9375ZM25.0425 17.9252C25.4972 17.4705 25.4972 16.7332 25.0425 16.2785L17.6324 8.86843C17.1777 8.41371 16.4405 8.41371 15.9858 8.86843C15.531 9.32315 15.531 10.0604 15.9858 10.5151L22.5725 17.1019L15.9858 23.6886C15.531 24.1433 15.531 24.8806 15.9858 25.3353C16.4405 25.79 17.1777 25.79 17.6324 25.3353L25.0425 17.9252ZM10.2466 18.2663H24.2192V15.9375H10.2466V18.2663Z" fill="#9A0F36"/>
</svg>
