<svg width="34" height="34" viewBox="0 0 34 34" fill="none" xmlns="http://www.w3.org/2000/svg">
    <circle cx="17" cy="17" r="15.4062" transform="matrix(-1 0 0 1 34 0)" fill="#FBFAF6" stroke="#9A0F36" stroke-width="3.1875"/>
    <path d="M23.7538 15.9376C24.3969 15.9376 24.9182 16.4589 24.9182 17.102C24.9182 17.7451 24.3969 18.2664 23.7538 18.2664V15.9376ZM8.95784 17.9253C8.50312 17.4706 8.50312 16.7334 8.95784 16.2786L16.3679 8.86856C16.8226 8.41383 17.5599 8.41383 18.0146 8.86856C18.4693 9.32328 18.4693 10.0605 18.0146 10.5152L11.4279 17.102L18.0146 23.6887C18.4693 24.1435 18.4693 24.8807 18.0146 25.3354C17.5599 25.7901 16.8226 25.7901 16.3679 25.3354L8.95784 17.9253ZM23.7538 18.2664H9.78118V15.9376H23.7538V18.2664Z" fill="#9A0F36"/>
</svg>
