<svg width="74" height="74" viewBox="0 0 74 74" fill="none" xmlns="http://www.w3.org/2000/svg">
    <circle cx="36.5267" cy="36.5267" r="33.1986" transform="matrix(-1 0 0 1 73.1526 0.123047)" fill="#FBFAF6" stroke="#9A0F36" stroke-width="6.65625"/>
    <path d="M51.1355 34.4371C52.4784 34.4371 53.567 35.5258 53.567 36.8687C53.567 38.2115 52.4784 39.3002 51.1355 39.3002V34.4371ZM19.3942 38.588C18.4446 37.6384 18.4446 36.0989 19.3942 35.1493L34.8682 19.6753C35.8178 18.7257 37.3573 18.7257 38.3069 19.6753C39.2564 20.6249 39.2564 22.1644 38.3069 23.114L24.5522 36.8687L38.3069 50.6233C39.2564 51.5729 39.2564 53.1124 38.3069 54.062C37.3573 55.0116 35.8178 55.0116 34.8682 54.062L19.3942 38.588ZM51.1355 39.3002H21.1135V34.4371H51.1355V39.3002Z" fill="#9A0F36"/>
</svg>
