<svg width="74" height="74" viewBox="0 0 74 74" fill="none" xmlns="http://www.w3.org/2000/svg">
    <circle cx="37.3752" cy="36.6498" r="33.1048" fill="#FBFAF6" stroke="#9A0F36" stroke-width="6.84375"/>
    <path d="M22.8645 34.3689C21.4838 34.3689 20.3645 35.4882 20.3645 36.8689C20.3645 38.2496 21.4838 39.3689 22.8645 39.3689V34.3689ZM54.6542 38.6367C55.6305 37.6604 55.6305 36.0774 54.6542 35.1011L38.7443 19.1912C37.768 18.2149 36.1851 18.2149 35.2088 19.1912C34.2325 20.1675 34.2325 21.7505 35.2088 22.7268L49.3509 36.8689L35.2088 51.011C34.2325 51.9873 34.2325 53.5703 35.2088 54.5466C36.1851 55.5229 37.768 55.5229 38.7443 54.5466L54.6542 38.6367ZM22.8645 39.3689H52.8865V34.3689H22.8645V39.3689Z" fill="#9A0F36"/>
</svg>
